<svg xmlns="http://www.w3.org/2000/svg" xmlns:xlink="http://www.w3.org/1999/xlink" style="margin:auto;background:#00000000;display:block;z-index:1;position:relative" width="1226" height="907" preserveAspectRatio="xMidYMid" viewBox="0 0 1226 907">
<g transform="translate(613,453.5) scale(1,1) translate(-613,-453.5)"><linearGradient id="lg-0.4152452233009618" x1="0" x2="1" y1="0" y2="0">
  <stop stop-color="#ff3b3b" offset="0"></stop>
  <stop stop-color="#40e2ff" offset="1"></stop>
</linearGradient><path d="M 1138 454 C 1138 612 889 792 739 841 C 589 890 323 860 230 732 C 137 604 133 300 226 172 C 319 44 604 -34 755 15 C 906 64 1138 296 1138 454" fill="url(#lg-0.4152452233009618)" opacity="0.49">
  <animate attributeName="d" dur="10s" repeatCount="indefinite" keyTimes="0;0.3333333333333333;0.6666666666666666;1" calcmod="spline" keySplines="0.3 0.1 0.7 0.9;0.3 0.1 0.7 0.9;0.3 0.1 0.7 0.9" begin="-4s" values="M 1138 454 C 1138 612 889 792 739 841 C 589 890 323 860 230 732 C 137 604 133 300 226 172 C 319 44 604 -34 755 15 C 906 64 1138 296 1138 454;M 1163 454 C 1163 620 925 877 767 928 C 609 979 322 871 224 736 C 126 601 65 260 163 126 C 261 -8 571 46 729 97 C 887 148 1163 288 1163 454;M 1219 454 C 1219 617 918 864 763 914 C 608 964 281 896 185 764 C 89 632 103 285 199 153 C 295 21 579 32 734 82 C 889 132 1219 291 1219 454;M 1138 454 C 1138 612 889 792 739 841 C 589 890 323 860 230 732 C 137 604 133 300 226 172 C 319 44 604 -34 755 15 C 906 64 1138 296 1138 454"></animate>
</path><path d="M 1239 454 C 1239 631 912 801 744 856 C 576 911 293 905 189 762 C 85 619 101 300 205 157 C 309 14 603 -87 771 -32 C 939 23 1239 277 1239 454" fill="url(#lg-0.4152452233009618)" opacity="0.49">
  <animate attributeName="d" dur="10s" repeatCount="indefinite" keyTimes="0;0.3333333333333333;0.6666666666666666;1" calcmod="spline" keySplines="0.3 0.1 0.7 0.9;0.3 0.1 0.7 0.9;0.3 0.1 0.7 0.9" begin="-4s" values="M 1239 454 C 1239 631 912 801 744 856 C 576 911 293 905 189 762 C 85 619 101 300 205 157 C 309 14 603 -87 771 -32 C 939 23 1239 277 1239 454;M 1129 454 C 1129 614 902 827 750 876 C 598 925 311 870 217 741 C 123 612 52 243 146 114 C 240 -15 604 -36 756 13 C 908 62 1129 294 1129 454;M 1279 454 C 1279 623 930 880 769 932 C 608 984 322 874 223 737 C 124 600 76 272 175 135 C 274 -2 591 -26 752 26 C 913 78 1279 285 1279 454;M 1239 454 C 1239 631 912 801 744 856 C 576 911 293 905 189 762 C 85 619 101 300 205 157 C 309 14 603 -87 771 -32 C 939 23 1239 277 1239 454"></animate>
</path><path d="M 1197 454 C 1197 615 907 836 754 886 C 601 936 256 912 161 782 C 66 652 81 266 176 136 C 271 6 569 67 722 117 C 875 167 1197 293 1197 454" fill="url(#lg-0.4152452233009618)" opacity="0.49">
  <animate attributeName="d" dur="10s" repeatCount="indefinite" keyTimes="0;0.3333333333333333;0.6666666666666666;1" calcmod="spline" keySplines="0.3 0.1 0.7 0.9;0.3 0.1 0.7 0.9;0.3 0.1 0.7 0.9" begin="-4s" values="M 1197 454 C 1197 615 907 836 754 886 C 601 936 256 912 161 782 C 66 652 81 266 176 136 C 271 6 569 67 722 117 C 875 167 1197 293 1197 454;M 1157 454 C 1157 622 930 887 771 939 C 612 991 286 899 187 763 C 88 627 124 306 222 170 C 320 34 572 38 731 90 C 890 142 1157 286 1157 454;M 1269 454 C 1269 625 931 878 768 931 C 605 984 277 908 177 770 C 77 632 87 282 187 144 C 287 6 591 -33 754 20 C 917 73 1269 283 1269 454;M 1197 454 C 1197 615 907 836 754 886 C 601 936 256 912 161 782 C 66 652 81 266 176 136 C 271 6 569 67 722 117 C 875 167 1197 293 1197 454"></animate>
</path><path d="M 1158 454 C 1158 623 896 776 735 828 C 574 880 296 892 197 755 C 98 618 100 290 199 153 C 298 16 575 24 736 76 C 897 128 1158 285 1158 454" fill="url(#lg-0.4152452233009618)" opacity="0.49">
  <animate attributeName="d" dur="10s" repeatCount="indefinite" keyTimes="0;0.3333333333333333;0.6666666666666666;1" calcmod="spline" keySplines="0.3 0.1 0.7 0.9;0.3 0.1 0.7 0.9;0.3 0.1 0.7 0.9" begin="-4s" values="M 1158 454 C 1158 623 896 776 735 828 C 574 880 296 892 197 755 C 98 618 100 290 199 153 C 298 16 575 24 736 76 C 897 128 1158 285 1158 454;M 1258 454 C 1258 632 945 899 776 954 C 607 1009 250 938 145 794 C 40 650 55 268 160 124 C 265 -20 573 2 742 57 C 911 112 1258 276 1258 454;M 1143 454 C 1143 616 900 814 746 864 C 592 914 233 929 138 798 C 43 667 82 268 177 137 C 272 6 610 -60 764 -10 C 918 40 1143 292 1143 454;M 1158 454 C 1158 623 896 776 735 828 C 574 880 296 892 197 755 C 98 618 100 290 199 153 C 298 16 575 24 736 76 C 897 128 1158 285 1158 454"></animate>
</path><path d="M 1196 454 C 1196 631 919 824 751 879 C 583 934 296 902 192 759 C 88 616 20 241 124 98 C 228 -45 583 -27 751 28 C 919 83 1196 277 1196 454" fill="url(#lg-0.4152452233009618)" opacity="0.49">
  <animate attributeName="d" dur="10s" repeatCount="indefinite" keyTimes="0;0.3333333333333333;0.6666666666666666;1" calcmod="spline" keySplines="0.3 0.1 0.7 0.9;0.3 0.1 0.7 0.9;0.3 0.1 0.7 0.9" begin="-4s" values="M 1196 454 C 1196 631 919 824 751 879 C 583 934 296 902 192 759 C 88 616 20 241 124 98 C 228 -45 583 -27 751 28 C 919 83 1196 277 1196 454;M 1187 454 C 1187 635 935 860 763 916 C 591 972 182 990 76 844 C -30 698 -13 222 94 76 C 201 -70 586 -48 758 8 C 930 64 1187 273 1187 454;M 1165 454 C 1165 614 910 851 758 900 C 606 949 259 908 165 779 C 71 650 52 243 146 114 C 240 -15 599 -20 751 29 C 903 78 1165 294 1165 454;M 1196 454 C 1196 631 919 824 751 879 C 583 934 296 902 192 759 C 88 616 20 241 124 98 C 228 -45 583 -27 751 28 C 919 83 1196 277 1196 454"></animate>
</path></g>
</svg>