<svg width="1000" height="600" xmlns="http://www.w3.org/2000/svg">
    <defs>
        <linearGradient id="a" gradientTransform="rotate(90)">
            <stop offset="5%" stop-color="#30a4e9" />
            <stop offset="95%" stop-color="#63baee" />
        </linearGradient>
        <linearGradient id="b" gradientTransform="rotate(90)">
            <stop offset="5%" stop-color="#227bf0" />
            <stop offset="95%" stop-color="#599cf3" />
        </linearGradient>
        <linearGradient id="c" gradientTransform="rotate(90)">
            <stop offset="5%" stop-color="#225dbd" />
            <stop offset="95%" stop-color="#5985cd" />
        </linearGradient>
        <linearGradient id="d" gradientTransform="rotate(90)">
            <stop offset="5%" stop-color="#2b436c" />
            <stop offset="95%" stop-color="#607290" />
        </linearGradient>
        <linearGradient id="e" gradientTransform="rotate(90)">
            <stop offset="5%" stop-color="#4d3d3b" />
            <stop offset="95%" stop-color="#796d6c" />
        </linearGradient>
        <linearGradient id="f" gradientTransform="rotate(90)">
            <stop offset="5%" stop-color="#a65f49" />
            <stop offset="95%" stop-color="#bc8776" />
        </linearGradient>
        <linearGradient id="g" gradientTransform="rotate(90)">
            <stop offset="5%" stop-color="#fe8157" />
            <stop offset="95%" stop-color="#fea081" />
        </linearGradient>
    </defs>
    <path fill="#3ecce1" d="M0 0h1000v600H0z" />
    <path
        d="M0 75c37.23 5.818 74.458 11.635 108 10 33.542-1.635 63.396-10.723 93-10 29.604.723 58.96 11.255 91 11 32.04-.255 66.767-11.298 102-18 35.233-6.702 70.973-9.062 108-7 37.027 2.062 75.342 8.547 105 11 29.658 2.453 50.661.874 84 0s79.014-1.043 117-4c37.986-2.957 68.282-8.702 99-8 30.718.702 61.86 7.851 133 15l-40 525H0Z"
        fill="url(#a)" />
    <path
        d="M0 150c33.58-5.49 67.16-10.979 103-12 35.84-1.021 73.94 2.426 106 3 32.06.574 58.078-1.725 88-5 29.922-3.275 63.747-7.524 96-1s62.935 23.823 99 25c36.065 1.177 77.515-13.767 111-19 33.485-5.233 59.006-.753 90 2s67.46 3.78 105 2c37.54-1.78 76.154-6.366 110-6 33.846.366 62.923 5.683 132 11l-40 450H0Z"
        fill="url(#b)" />
    <path
        d="M0 225c36.872-1.951 73.744-3.903 108-2s65.898 7.66 100 6c34.102-1.66 70.666-10.737 100-9 29.334 1.737 51.44 14.29 83 12 31.56-2.29 72.576-19.421 107-21 34.424-1.579 62.257 12.395 94 18 31.743 5.605 67.395 2.843 105-1 37.605-3.843 77.163-8.765 112-6 34.837 2.765 64.953 13.219 96 15 31.047 1.781 63.023-5.11 135-12l-40 375H0Z"
        fill="url(#c)" />
    <path
        d="M0 300c26.865-1.164 53.73-2.328 91-1 37.27 1.328 84.945 5.15 118 8 33.055 2.85 51.491 4.73 81 4 29.509-.73 70.09-4.071 106-3 35.91 1.071 67.145 6.555 99 6 31.855-.555 64.329-7.149 99-10 34.671-2.851 71.54-1.96 104-3 32.46-1.04 60.508-4.01 96-7s78.426-5.997 114-5c35.574.997 63.787 5.998 132 11l-40 300H0Z"
        fill="url(#d)" />
    <path
        d="M0 375c37.59-1.595 75.18-3.19 106-7 30.82-3.81 54.873-9.837 86-7 31.127 2.837 69.329 14.538 103 19 33.671 4.462 62.812 1.685 95-2s67.423-8.278 105-13c37.577-4.722 77.497-9.575 110-4 32.503 5.575 57.588 21.577 88 26 30.412 4.423 66.15-2.732 101-4 34.85-1.268 68.814 3.352 103 3 34.186-.352 68.593-5.676 143-11l-40 225H0Z"
        fill="url(#e)" />
    <path
        d="M0 450c31.954-.939 63.908-1.877 96 0s64.32 6.57 100 9c35.68 2.43 74.81 2.595 109-4 34.19-6.595 63.44-19.95 95-18 31.56 1.95 65.432 19.206 100 23 34.568 3.794 69.832-5.873 102-9 32.168-3.127 61.241.285 96-2s75.204-10.27 110-10c34.796.27 63.942 8.791 95 12 31.058 3.209 64.03 1.104 137-1l-40 150H0Z"
        fill="url(#f)" />
    <path
        d="M0 525c34.588-2.712 69.176-5.424 104-2 34.824 3.424 69.883 12.986 102 13 32.117.014 61.293-9.518 92-9 30.707.518 62.946 11.086 95 10 32.054-1.086 63.925-13.828 98-15 34.075-1.172 70.354 9.225 103 10 32.646.775 61.658-8.07 97-12 35.342-3.93 77.015-2.943 111 1s60.281 10.84 92 12c31.719 1.16 68.86-3.42 146-8l-40 75H0Z"
        fill="url(#g)" />
</svg>