<svg xmlns="http://www.w3.org/2000/svg" version="1.1" xmlns:xlink="http://www.w3.org/1999/xlink"
    xmlns:svgjs="http://svgjs.com/svgjs" width="1000" height="500" preserveAspectRatio="none" viewBox="0 0 1000 500">
    <g mask="url(&quot;#SvgjsMask1130&quot;)" fill="none">
        <path
            d="M337.772,99.802C362.993,99.309,388.275,90.926,401.531,69.464C415.431,46.961,414.711,18.758,402.237,-4.566C388.973,-29.367,365.896,-49.919,337.772,-49.75C309.875,-49.582,288.272,-28.137,274.637,-3.798C261.365,19.895,255.413,48.854,269.545,72.044C283.239,94.515,311.462,100.316,337.772,99.802"
            fill="rgba(28, 83, 142, 1)" class="triangle-float3"></path>
        <path
            d="M380.237,525.687C412.103,528.391,448.867,524.231,464.877,496.546C480.898,468.842,466.244,434.843,447.955,408.581C432.523,386.421,407.234,375.633,380.237,375.008C351.881,374.351,321.041,380.749,306.857,405.312C292.672,429.877,302.521,459.803,317.286,484.023C331.324,507.052,353.364,523.407,380.237,525.687"
            fill="rgba(28, 83, 142, 1)" class="triangle-float3"></path>
        <path
            d="M75.71,442.607C92.079,442.392,107.29,434.09,115.536,419.948C123.843,405.701,125.105,387.429,115.839,373.786C107.404,361.367,90.72,361.002,75.71,361.312C61.451,361.606,46.516,363.692,38.352,375.386C28.977,388.814,26.072,406.705,34.027,421.02C42.173,435.678,58.941,442.828,75.71,442.607"
            fill="#0f4681" class="triangle-float3"></path>
        <path d="M-136.06 226.64 a149.79 149.79 0 1 0 299.58 0 a149.79 149.79 0 1 0 -299.58 0z"
            fill="#316fb1" class="triangle-float3"></path>
        <path d="M421.53 75.97 a160.66 160.66 0 1 0 321.32 0 a160.66 160.66 0 1 0 -321.32 0z"
            fill="#174270" class="triangle-float3"></path>
        <path
            d="M236.576,586.177C272.192,586.743,311.78,585.243,331.457,555.551C352.723,523.461,347.214,481.346,328.248,447.845C308.975,413.801,275.654,386.13,236.576,387.954C199.703,389.675,176.293,423.357,158.62,455.764C141.929,486.37,128.888,522.697,146.775,552.619C164.348,582.017,202.33,585.633,236.576,586.177"
            fill="#2261a3" class="triangle-float1"></path>
        <path
            d="M359.938,374.032C385.42,373.213,409.999,364.316,424.298,343.209C440.651,319.07,451.247,286.969,435.576,262.381C420.545,238.798,387.798,239.792,359.938,242.225C337.121,244.217,317.089,254.94,304.173,273.855C288.963,296.128,274.869,324.026,287.987,347.592C301.307,371.52,332.566,374.912,359.938,374.032"
            fill="#1b4470" class="triangle-float1"></path>
        <path
            d="M654.759,325.502C697.839,327.025,746.683,321.551,768.106,284.144C789.452,246.872,769.595,201.927,746.139,165.945C725.262,133.919,692.951,111.969,654.759,110.268C613.179,108.416,569.586,121.477,548.098,157.122C526.031,193.728,531.62,240.484,554.493,276.592C575.821,310.261,614.928,324.094,654.759,325.502"
            fill="#ff8157" class="triangle-float2"></path>
        <path
            d="M592.27,217.878C637.818,221.628,682.416,196.376,704.401,156.309C725.673,117.543,716.572,70.855,693.714,33.002C671.721,-3.42,634.782,-31.116,592.27,-29.383C552.088,-27.745,522.085,4.705,504.207,40.727C488.404,72.568,492.309,108.317,508.132,140.148C526.349,176.794,551.484,214.52,592.27,217.878"
            fill="#3169a5" class="triangle-float3"></path>
        <path d="M764.85 255.61 a147.04 147.04 0 1 0 294.08 0 a147.04 147.04 0 1 0 -294.08 0z"
            fill="rgba(28, 83, 142, 1)" class="triangle-float1"></path>
        <path
            d="M165.444,357.659C196.697,359.151,232.954,360.837,249.919,334.547C267.753,306.911,257.235,270.71,239.376,243.09C223.144,217.987,195.335,204.311,165.444,203.905C134.747,203.488,103.371,214.489,87.949,241.034C72.467,267.683,76.818,301.426,93.875,327.096C109.262,350.253,137.673,356.333,165.444,357.659"
            fill="rgba(28, 83, 142, 1)" class="triangle-float1"></path>
        <path
            d="M672.188,623.955C707.322,622.954,737.436,600.724,754.423,569.954C770.819,540.254,771.409,504.363,754.421,474.998C737.459,445.677,706.006,429.748,672.188,427.804C634.055,425.612,591.83,431.995,571.769,464.499C550.978,498.187,560.317,541.387,581.412,574.885C601.057,606.08,635.337,625.005,672.188,623.955"
            fill="rgba(28, 83, 142, 1)" class="triangle-float3"></path>
        <path d="M-73.46 493.23 a136.01 136.01 0 1 0 272.02 0 a136.01 136.01 0 1 0 -272.02 0z"
            fill="rgba(28, 83, 142, 1)" class="triangle-float3"></path>
    </g>
    <defs>
        <mask id="SvgjsMask1130">
            <rect width="1000" height="500" fill="#ffffff"></rect>
        </mask>
        <style>
            @keyframes float1 {
                0% {
                    transform: translate(0, 0)
                }

                50% {
                    transform: translate(-10px, 0)
                }

                100% {
                    transform: translate(0, 0)
                }
            }

            .triangle-float1 {
                animation: float1 5s infinite;
            }

            @keyframes float2 {
                0% {
                    transform: translate(0, 0)
                }

                50% {
                    transform: translate(-5px, -10px)
                }

                100% {
                    transform: translate(0, 0)
                }
            }

            .triangle-float2 {
                animation: float2 5s infinite;
            }

            @keyframes float3 {
                0% {
                    transform: translate(0, 0)
                }

                50% {
                    transform: translate(0, -10px)
                }

                100% {
                    transform: translate(0, 0)
                }
            }

            .triangle-float3 {
                animation: float3 6s infinite;
            }
        </style>
    </defs>
</svg>